<svg xmlns="http://www.w3.org/2000/svg" width="62" height="43" viewBox="0 0 62 43"><g fill="none" fill-rule="evenodd"><g fill="#FFF"><path d="M19.15 27.2l-.55 1.73h1.61l-.54-1.73h-.52zM20.72 19.65c.1125203-.1968015.1548329-.4259949.12-.65.0348329-.2240051-.0074797-.4531985-.12-.65-.1471009-.0882006-.3211575-.1201702-.49-.09h-1.67v1.47h1.67c.1688425.0301702.3428991-.0017994.49-.09v.01zM29.29 11.8c.0043575-.0268527-.0052293-.0540795-.0254498-.072278-.0202206-.0181984-.0483033-.0248742-.0745502-.017722-.0605749.0064487-.118797.0269976-.17.06-.5436821.3763895-1.0346853.8236733-1.46 1.33.0424859.069494.1185587.111334.2.11.663948-.2679478 1.2101746-.7645174 1.54-1.4l-.01-.01zM28 18.33h-1c-.1688435-.0311048-.3432302.0009255-.49.09-.07.07-.13.31-.13 1.94s.05 1.87.13 1.94c.1464253.0899761.3211581.1220699.49.09h1c.1688419.0320699.3435747-.0000239.49-.09.07-.07.13-.31.13-1.94s-.05-1.86-.13-1.94c-.1471009-.0882006-.3211575-.1201702-.49-.09zM28.1 26.94h-1.67v1.47h1.67c.1688425.0301702.3428991-.0017994.49-.09.1125203-.1968015.1548329-.4259949.12-.65.0395762-.2304944-.002885-.4675696-.12-.67-.1486823-.083919-.3223476-.1122725-.49-.08v.02zM36.37 27h-1.75v4.13h1.74c.2671257.0548488.5451023.0085193.78-.13.12-.12.16-.44.16-1.93s0-1.81-.16-1.93c-.2308255-.1394822-.5048496-.1893047-.77-.14z"/><path d="M47.41 13L25.35.58c-.6889096-.3609843-1.5110904-.3609843-2.2 0L1.1 13c-.66611816.4517463-1.07519885 1.1955294-1.1 2v18.2c.03260078.7502798.52027912 1.4044825 1.23 1.65L23 42.79c.8040294.2031795 1.6459706.2031795 2.45 0l21.8-7.95c.7097209-.2455175 1.1973992-.8997202 1.23-1.65V15c-.0195178-.7985752-.4165031-1.5406036-1.07-2zM18 8.4c.84-.36 2.1-.21 3.72-.21C25.5 8.18 29.19 8 29.36 8c.17 0 .13-.1.86.49.1639888.09087053.2991295.2260112.39.39-.152001.1328817-.3481482.20420795-.55.2-.6.07-1.34.13-2.09.19-.5075164.1585094-.9678839.44022682-1.34.82-1.11 1.05-1.88 1.6-2.09 1.86.3788511-.2468315.810498-.4009911 1.26-.45.3476765.0118721.6454628.2525487.73.59-.0079788.110204-.072246.2084951-.17.26-.39.33-1.64 1.31-1.64 1.73-.0031896.0300388.0073702.0599097.0287303.0812697.02136.0213601.0512309.0319199.0812697.0287303.4188841-.1631197.8050271-.400225 1.14-.7.2467402-.215672.4621538-.464744.64-.74.2508571-.3684372.5464472-.704335.88-1 .3948104-.4452331.925649-.747565 1.51-.86.2427868.0540725.4567074.1966863.6.4.179122.1120425.2970397.2999737.32.51-.2676551.9502921-1.0361013 1.6764737-2 1.89-.2264702-.0178259-.4375517-.1215778-.59-.29-.1304167.1721822-.2131922.3756718-.24.59-.003362.0841269.0300031.1655621.0914258.2231458.0614227.0575838.1448389.0856311.2285742.0768542.1429632-.0076362.2842402-.0345461.42-.08.8323306-.3188589 1.619084-.7458576 2.34-1.27.0204352-.0002098.0399415.0085212.0533989.023901.0134573.0153798.0195216.0358725.0166011.056099-.1703613.2953639-.3941662.5564697-.66.77-.5789292.6202677-1.3578354 1.0168017-2.2 1.12-.5184428-.1981082-.9265079-.6098168-1.12-1.13-.4708791.4854934-1.0550638.8463134-1.7 1.05-.4582675-.0999969-.7628998-.535186-.7-1 .1978183-.6530748.5967808-1.2270209 1.14-1.64-.9900718.5517499-1.8389144 1.3252919-2.48 2.26-.0702083.1506454-.1686525.2864305-.29.4-.3323411-.1207675-.5881326-.3913875-.69-.73.0061986-.0683917.0303458-.1339341.07-.19 1.3206376-1.6762988 2.8045964-3.2172041 4.43-4.6h-.83c-.5900477.26854377-1.1178676.6567468-1.55 1.14-1.1958582 1.1339703-2.3181384 2.3430936-3.36 3.62-.64.82-.55 1.08-.68 1.08-.4193522-.2703249-.7225223-.6876296-.85-1.17 0-.51 1.47-1.93 2.21-2.65 1.25-1.2 2-1.83 2.11-1.94l.2-.14c-1.72-.3-3.55-.83-4.65-.52-1.38.38-2.1 3.34-.11 2.63.8103531-.3230345 1.5234258-.8500883 2.07-1.53.18-.22.29-.11.1.19-.6959912 1.2345557-2.0027739 1.9987561-3.42 2-1.74.05-1.4-2.73.72-3.64zm13 12c0 2.06-.24 2.9-.68 3.33-.3758795.335554-.8818806.4858876-1.38.41h-2.83c-.4982179.0773327-1.004827-.0731816-1.38-.41-.45-.48-.73-1.32-.73-3.38 0-2.06.24-2.9.68-3.32.3758795-.335554.8818806-.4858876 1.38-.41h2.78c.4981194-.0758876 1.0041205.074446 1.38.41.49.43.78 1.27.78 3.32v.05zm-15.41 2.02h.79v-4.13h-.79v-1.67h5.77c.4796511-.0594352.962953.0776206 1.34.38.3770309.4689927.5369913 1.0761153.44 1.67 0 1.32-.35 1.64-1.21 1.81l1.13 1.92h.71v1.66h-2.3l-1.65-2.81h-1.26v1.15h.81v1.66h-3.78v-1.64zm-7.07 0h2v-4.13h-2v-1.67H15v1.66h-2v4.14h2v1.66H8.52v-1.66zm5.93 10.33h-3.87v-1.66h.84v-1.16L9.26 27h-.74v-1.7h3.87v1.64h-.65l.82 1.28.89-1.28h-.61V25.3h3.73V27h-.76l-2.2 2.9v1.19h.84v1.66zm24.38-.59c-.5846798.4855288-1.3480084.6999878-2.1.59h-7.39l-1.65-2.81h-1.26v1.15h.81v1.66h-7.13v-1.62h.69l-.18-.64h-2.43l-.19.64h.68v1.63H15v-1.67h.85l2-5.83h3.36l2 5.83h1.11V27h-.86v-1.7h5.77c.4811324-.0578234.9650428.0830162 1.34.39.3762925.4730855.5327359 1.0843061.43 1.68 0 1.32-.35 1.64-1.21 1.81l1.13 1.92h1.5V27h-.78v-1.7h5.08c.7519916-.1099878 1.5153202.1044712 2.1.59.51.51.78 1.28.78 3.14s-.26 2.63-.77 3.14v-.01zM40 18.29h-.78v5.8h-2.45l-2.63-4.25v2.59h.79v1.66h-3.55v-1.67h.79v-4.13h-.79v-1.67h3.39l2.48 3.82v-2.15h-.74v-1.67H40v1.67z"/></g><path fill="#6CBBB7" d="M33.89 11.11c.0026412.3209154.1326631.6276365.3614599.8526825.2287967.225046.5376249.3499807.8585401.3473175h25.56c.3209152.0026632.6297434-.1222715.8585401-.3473175.2287968-.225046.3588187-.5317671.3614599-.8526825v-9.6c-.0026412-.3209154-.1326631-.62763647-.3614599-.85268248C61.2997434.43227152 60.9909152.30733685 60.67.31H35.11c-.3209152-.00266315-.6297434.1222715-.8585401.34731752-.2287968.225046-.3588187.53176708-.3614599.85268248v9.61-.01z"/><path fill="#FFF" d="M36.57 9.33v-6h3.23c.4439669-.05385253.8899595.08296512 1.2273529.37651647.3373934.29355134.5345792.7163352.5426471 1.16348353.0181377.65001264-.4330193 1.21922933-1.07 1.35.7008783.14078136 1.1988623.7653714 1.18 1.48.0116319.46264574-.1776275.90766515-.5189357 1.22021137C40.8197562 9.23275757 40.3598374 9.3822103 39.9 9.33h-3.33zm3.66-4.27c.0007701-.18595225-.0769394-.3636016-.2140161-.48925518C39.8789073 4.44509122 39.6951837 4.38309352 39.51 4.4h-1.64v1.31h1.64c.1841592.01995172.3680826-.03961658.505578-.16374436.1374954-.12412778.2154996-.30102193.214422-.48625564zm.12 2.46c-.0015525-.20127768-.0884646-.39243735-.2391162-.52592604-.1506515-.1334887-.3508826-.1967598-.5508838-.17407396h-1.69v1.4h1.68c.2029223.0328479.4099237-.02649115.5646262-.16185583C40.2693286 7.9227795 40.3556206 7.7254869 40.35 7.52zM43.13 9.33v-6h4.34v1.09h-3V5.7h3v1.13h-3V8.2h3v1.13h-4.34zM50.37 9.33V4.42h-1.8V3.29h4.89v1.13h-1.78v4.9h-1.31v.01zM58.4 9.33L58 8.3h-2.6L55 9.33h-1.48l2.37-6h1.64l2.36 6H58.4zm-1.69-4.75l-1 2.59h1.91l-.91-2.59z"/></g></svg>
